<svg width="1201" height="171" viewBox="0 0 1201 171" version="1.1" xmlns="http://www.w3.org/2000/svg"><title>Page 1</title><g id="Icons-/-logos-/-UI-Elements" stroke="none" stroke-width="1" fill="none" fill-rule="evenodd"><g id="logo/horizontal" transform="translate(-1)" fill="#000"><g id="Page-1" transform="translate(1)"><g id="Group" transform="translate(0 .39)"><path d="M91.871 137.14c25.247-3.575 44.666-25.312 44.666-51.6 0-15.968-7.168-30.261-18.457-39.82L91.871 71.988v65.153z" id="Fill-23"/><path d="M77.189 137.14V71.989L50.98 45.72c-11.286 9.559-18.457 23.852-18.457 39.82 0 26.288 19.422 48.025 44.666 51.6" id="Fill-24"/><path d="M129.727 40.247c12.072 12.096 18.72 28.185 18.72 45.295 0 17.108-6.648 33.194-18.72 45.29-12.073 12.103-28.125 18.762-45.195 18.762-17.074 0-33.125-6.66-45.198-18.761-12.072-12.097-18.72-28.183-18.72-45.29 0-17.111 6.648-33.2 18.72-45.296a64.25 64.25 0 0 1 3.198-2.99L27.93 22.62a84.258 84.258 0 0 0-3.17 3.02C17 33.418 10.906 42.475 6.648 52.56 2.236 63.014.001 74.108.001 85.542c0 11.432 2.235 22.523 6.647 32.978a84.453 84.453 0 0 0 18.112 26.922 84.275 84.275 0 0 0 26.866 18.15c10.426 4.42 21.499 6.663 32.906 6.663s22.477-2.244 32.905-6.662a84.275 84.275 0 0 0 26.867-18.151 84.49 84.49 0 0 0 18.109-26.922c4.411-10.455 6.647-21.546 6.647-32.978 0-11.434-2.236-22.528-6.647-32.982-4.258-10.086-10.352-19.143-18.11-26.92a88.675 88.675 0 0 0-3.17-3.02L126.53 37.256a64.25 64.25 0 0 1 3.198 2.99" id="Fill-25"/><path d="M84.53.36c14.55 0 26.346 11.821 26.346 26.4 0 14.584-11.796 26.403-26.346 26.403S58.184 41.344 58.184 26.76C58.184 12.18 69.98.36 84.53.36" id="Fill-26"/></g><g id="Group-2" transform="translate(237 33)"><path id="Fill-1" d="M50.928 66.893L71.364.502h26.863L118.5 66.893 141.407.502h27.852l-40.213 115.45H109.93l-25.216-80.27-25.05 80.27h-19.12L.332.502h27.852z"/><path id="Fill-2" d="M182.941 115.95h25.71V.5h-25.71z"/><path d="M236.995.495h25.71v47.403L306.215.495h31.812l-45.821 51.037c3.955 5.507 11.263 15.775 21.92 30.805a11007.486 11007.486 0 0 0 23.9 33.61h-29.999l-33.785-45.582-11.537 12.878v32.703h-25.71V.496z" id="Fill-3"/><path id="Fill-5" d="M354.01 115.95h25.71V.5h-25.71z"/><path id="Fill-7" d="M511.236 43.275l-31.149 63.093H464.76l-30.984-63.093v72.673h-25.71V.498h34.775l29.665 63.423L502.336.497h34.61v115.451h-25.71z"/><path id="Fill-8" d="M648.358.495v22.958h-57.353v23.784h51.585V69.21h-51.585v23.944h59.166v22.793h-84.876V.496z"/><path d="M742.216 84.24c6.315-5.952 9.479-14.597 9.479-25.932 0-11.34-3.164-20.07-9.479-26.181-6.319-6.111-16.01-9.164-29.09-9.164h-14.339v70.195h16.316c11.758 0 20.794-2.973 27.113-8.919M761.09 15.61c10.986 10.076 16.48 24.091 16.48 42.033 0 17.956-5.358 32.155-16.07 42.617-10.713 10.457-27.052 15.69-49.033 15.69h-39.389V.5h40.708C734.33.5 750.1 5.53 761.09 15.61" id="Fill-9"/><path id="Fill-10" d="M799.814 115.95h25.71V.5h-25.71z"/><path d="M901.179 34.85l-14.513 33.53h28.856l-14.343-33.53zm34.774 81.102l-10.722-24.945h-48.284l-10.717 24.945h-27.353L888.653.496h24.882l49.762 115.456h-27.344z" id="Fill-11"/></g></g></g></g></svg>